<?xml version="1.0" encoding="UTF-8" standalone="no"?>
<svg
   xmlns:dc="http://purl.org/dc/elements/1.1/"
   xmlns:cc="http://creativecommons.org/ns#"
   xmlns:rdf="http://www.w3.org/1999/02/22-rdf-syntax-ns#"
   xmlns:svg="http://www.w3.org/2000/svg"
   xmlns="http://www.w3.org/2000/svg"
   xmlns:sodipodi="http://sodipodi.sourceforge.net/DTD/sodipodi-0.dtd"
   xmlns:inkscape="http://www.inkscape.org/namespaces/inkscape"
   viewBox="0 0 700 700"
   version="1.1"
   id="svg11"
   sodipodi:docname="dazn-logo-2020.svg"
   inkscape:version="0.92.4 (5da689c313, 2019-01-14)"
   width="700"
   height="700"
   inkscape:export-filename="C:\Users\suitedoalex\sites\dazn-logo-0.png"
   inkscape:export-xdpi="561.73999"
   inkscape:export-ydpi="561.73999">
  <metadata
     id="metadata15">
    <rdf:RDF>
      <cc:Work
         rdf:about="">
        <dc:format>image/svg+xml</dc:format>
        <dc:type
           rdf:resource="http://purl.org/dc/dcmitype/StillImage" />
        <dc:title></dc:title>
      </cc:Work>
    </rdf:RDF>
  </metadata>
  <sodipodi:namedview
     pagecolor="#ffffff"
     bordercolor="#666666"
     borderopacity="1"
     objecttolerance="10"
     gridtolerance="10"
     guidetolerance="10"
     inkscape:pageopacity="0"
     inkscape:pageshadow="2"
     inkscape:window-width="1600"
     inkscape:window-height="837"
     id="namedview13"
     showgrid="false"
     inkscape:zoom="0.25"
     inkscape:cx="951.04308"
     inkscape:cy="499.51766"
     inkscape:window-x="-8"
     inkscape:window-y="-8"
     inkscape:window-maximized="1"
     inkscape:current-layer="svg11" />
  <defs
     id="defs3">
    <path
       id="a"
       d="M 0.012,0.008 H 80 V 80 H 0.012 Z"
       inkscape:connector-curvature="0" />
  </defs>
  <path
     style="fill:#ffffff;stroke:none;stroke-width:5.08521271px;stroke-linecap:butt;stroke-linejoin:miter;stroke-opacity:1"
     d="m 154.21934,159.30453 381.39091,-1.2713 -1.2713,157.64158 -24.1548,31.78258 24.1548,26.69737 1.2713,162.7268 -378.8483,6.35651 -5.0853,-161.45549 30.5113,-30.51128 -29.24,-34.32518 z"
     id="path836-6"
     inkscape:connector-curvature="0"
     inkscape:export-filename="C:\Users\suitedoalex\sites\dazn-logo-5.png"
     inkscape:export-xdpi="94.391304"
     inkscape:export-ydpi="94.391304" />
  <path
     inkscape:connector-curvature="0"
     d="m 397.02299,287.13151 13.07911,-44.01251 13.39955,44.01251 z m 65.22291,38.44421 -34.3252,-103.87564 c -0.76785,-2.28834 -1.63741,-3.79356 -2.6138,-4.50041 -0.9865,-0.70684 -2.56805,-1.06789 -4.74446,-1.06789 h -18.96789 c -2.1765,0 -3.77826,0.39156 -4.8208,1.14926 -1.03225,0.75769 -1.8815,2.23749 -2.5324,4.41904 L 359.5856,325.57572 c -0.4373,0.54412 -0.6509,1.62727 -0.6509,3.25962 0,2.51718 1.5256,3.76815 4.57671,3.76815 h 14.22334 c 1.30685,0 2.36465,-0.0509 3.1833,-0.15765 a 3.5596488,3.5596488 0 0 0 1.9629,-0.82889 c 0.49334,-0.42715 0.9255,-1.08823 1.312,-1.9578 0.3763,-0.87466 0.7831,-2.01883 1.22049,-3.43252 l 5.39536,-18.15421 h 39.0748 l 5.54795,17.82367 c 0.4373,1.52556 0.86955,2.72567 1.30694,3.60542 0.43225,0.86448 0.92551,1.5459 1.47471,2.03408 a 3.6003305,3.6003305 0 0 0 1.95775,0.91025 c 0.7628,0.10171 1.74425,0.15765 2.9393,0.15765 h 15.2048 c 3.0511,0 4.57669,-1.25097 4.57669,-3.76306 0,-0.76278 -0.0253,-1.28148 -0.0767,-1.54591 a 15.194615,15.194615 0 0 0 -0.57464,-1.7188 z m -16.84735,41.8157 h -10.95856 c -2.83253,0 -4.71404,0.40682 -5.63954,1.22046 -0.9255,0.82889 -1.3832,2.49175 -1.3832,4.99367 v 61.67346 L 395.0499,373.45808 c -1.30695,-2.62397 -2.5935,-4.28683 -3.8444,-4.99368 -1.25605,-0.70684 -3.458,-1.06789 -6.61586,-1.06789 h -10.1399 c -2.83254,0 -4.71404,0.41699 -5.63954,1.23062 -0.9255,0.82381 -1.38825,2.48667 -1.38825,4.98859 V 477.649 c 0,2.51718 0.43225,4.16988 1.30685,4.99368 0.8747,0.81364 2.7257,1.22554 5.55815,1.22554 h 11.12135 c 2.8274,0 4.7089,-0.4119 5.63449,-1.22045 0.92036,-0.82889 1.38825,-2.48159 1.38825,-4.99877 v -61.83618 l 32.36736,61.99891 c 1.30685,2.62397 2.5833,4.28683 3.8444,4.99368 1.25099,0.71193 3.45799,1.06281 6.61586,1.06281 h 10.1399 c 2.83254,0 4.7089,-0.4119 5.63955,-1.22045 0.92044,-0.82889 1.38825,-2.48159 1.38825,-4.99877 V 373.61064 c 0,-2.50192 -0.46781,-4.16987 -1.38825,-4.98859 -0.93065,-0.81364 -2.80701,-1.22554 -5.64461,-1.22554 z m 54.28979,-9.85005 28.22291,28.22293 V 527.90107 H 172.09895 V 385.74904 l 28.1924,-28.1975 c 4.16989,-4.16988 4.16989,-10.92812 0,-15.09291 L 172.0938,314.25095 V 172.09384 h 355.81239 v 142.13169 l -28.22299,28.22293 c -4.16981,4.16987 -4.16981,10.92812 0,15.09799 z M 553.40854,146.5915 H 146.59145 V 326.49615 L 170.09535,350 146.59145,373.50385 V 553.4085 H 553.40854 V 373.50385 L 529.90465,350 553.40854,326.49615 Z M 327.46235,459.64735 h -45.96019 l 48.39089,-68.04014 c 0.76281,-1.08824 1.25606,-1.96798 1.4747,-2.61889 0.21866,-0.6509 0.3255,-1.41369 0.3255,-2.28834 v -13.08934 c 0,-2.50192 -0.4679,-4.16987 -1.3934,-4.98859 -0.9255,-0.81364 -2.8172,-1.22554 -5.65985,-1.22554 h -69.8708 c -2.51715,0 -4.1495,0.46275 -4.91735,1.38318 -0.7628,0.93059 -1.1493,2.86297 -1.1493,5.81748 v 9.81446 c 0,2.93925 0.38135,4.88181 1.1493,5.79714 0.7627,0.93568 2.4002,1.39844 4.91735,1.39844 h 43.1328 l -47.7298,68.04014 c -1.20525,1.53065 -1.8104,3.0613 -1.8104,4.57669 V 477.649 c 0,2.5121 0.4679,4.16479 1.39845,4.9886 0.9255,0.81363 2.8172,1.22553 5.65985,1.22553 h 72.0371 c 2.5121,0 4.15465,-0.46784 4.9225,-1.38317 0.76281,-0.9306 1.1493,-2.86298 1.1493,-5.81749 v -9.81446 c 0,-2.93925 -0.3865,-4.87163 -1.1493,-5.79714 -0.7628,-0.93568 -2.41039,-1.40352 -4.9225,-1.40352 z M 306.0688,286.1399 c 0,4.47499 -0.29489,8.2177 -0.89499,11.21289 -0.60001,2.99519 -1.5764,5.43101 -2.93921,7.28203 -1.3629,1.85101 -3.163,3.15283 -5.39545,3.92578 -2.2375,0.76278 -4.98854,1.14417 -8.25324,1.14417 H 275.1813 v -70.67428 h 13.40461 c 6.20905,0 10.67385,1.84085 13.39954,5.48694 2.72055,3.6461 4.08335,9.67716 4.08335,18.07793 z m 23.3818,-47.26705 c -3.8139,-7.74987 -9.0211,-13.47582 -15.6116,-17.17277 -6.59544,-3.7122 -14.90475,-5.56322 -24.9277,-5.56322 h -33.5115 c -2.83245,0 -4.71405,0.40682 -5.6446,1.22045 -0.92045,0.82889 -1.38825,2.49176 -1.38825,4.99368 v 104.03328 c 0,2.51718 0.4678,4.16987 1.3933,4.99368 0.9255,0.81363 2.8071,1.22554 5.63955,1.22554 h 37.59495 c 17.76265,0 29.91634,-7.57697 36.45585,-22.73599 1.5256,-3.48846 2.58845,-7.00234 3.1834,-10.5569 0.6,-3.54439 0.90005,-8.03972 0.90005,-13.48598 v -22.08508 c 0,-6.21922 -0.30005,-11.12645 -0.90005,-14.72169 a 37.366142,37.366142 0 0 0 -3.1834,-10.145 z"
     mask="url(#b)"
     id="path9"
     style="fill:#000000;stroke-width:5.08521271"
     inkscape:export-filename="C:\Users\suitedoalex\sites\dazn-logo-5.png"
     inkscape:export-xdpi="94.391304"
     inkscape:export-ydpi="94.391304" />
  <path
     style="fill:#000000;stroke:none;stroke-width:5.12094307px;stroke-linecap:butt;stroke-linejoin:miter;stroke-opacity:1"
     d="m 890.301,170.40402 384.0707,-1.28024 -1.2802,158.74922 -24.3245,32.00589 24.3245,26.88496 1.2802,163.87016 -381.5103,6.40118 -5.1209,-162.58993 30.7257,-30.72565 -29.4455,-34.56638 z"
     id="path836-3"
     inkscape:connector-curvature="0"
     inkscape:export-filename="C:\Users\suitedoalex\sites\dazn-logo-4.png"
     inkscape:export-xdpi="93.732742"
     inkscape:export-ydpi="93.732742" />
  <path
     inkscape:connector-curvature="0"
     d="m 1136.0909,302.96985 13.1711,-44.32175 13.4937,44.32175 z m 65.6812,38.71434 -34.5664,-104.6055 c -0.7732,-2.30443 -1.6489,-3.82023 -2.6321,-4.53203 -0.9935,-0.71182 -2.5861,-1.07541 -4.7779,-1.07541 h -19.1011 c -2.1918,0 -3.8048,0.39432 -4.8546,1.15734 -1.0395,0.76302 -1.8948,2.25322 -2.5502,4.4501 l -34.8993,104.6055 c -0.4403,0.54794 -0.6555,1.6387 -0.6555,3.28252 0,2.53486 1.5364,3.79461 4.6089,3.79461 h 14.3233 c 1.3161,0 2.3813,-0.0512 3.2057,-0.15874 a 3.5846599,3.5846599 0 0 0 1.9767,-0.83471 c 0.4967,-0.43016 0.932,-1.09588 1.3212,-1.97156 0.379,-0.8808 0.7886,-2.03302 1.229,-3.45664 l 5.4333,-18.28176 h 39.3494 l 5.5869,17.9489 c 0.4404,1.53628 0.8757,2.74482 1.3161,3.63074 0.4352,0.87056 0.932,1.55677 1.4851,2.04838 a 3.6256274,3.6256274 0 0 0 1.9715,0.91665 c 0.7682,0.10242 1.7565,0.15874 2.96,0.15874 h 15.3115 c 3.0726,0 4.6088,-1.25975 4.6088,-3.78948 0,-0.76815 -0.026,-1.29049 -0.077,-1.55678 a 15.301376,15.301376 0 0 0 -0.5786,-1.73087 z m -16.9657,42.1095 h -11.0356 c -2.8524,0 -4.7471,0.40969 -5.6791,1.22903 -0.932,0.83471 -1.3929,2.50927 -1.3929,5.02877 v 62.1068 l -32.5948,-62.25531 c -1.3161,-2.6424 -2.6117,-4.31695 -3.8714,-5.02876 -1.2649,-0.71181 -3.4823,-1.0754 -6.6624,-1.0754 h -10.2112 c -2.8523,0 -4.7471,0.41992 -5.679,1.23927 -0.9321,0.82959 -1.3981,2.50414 -1.3981,5.02364 v 104.76424 c 0,2.53488 0.4353,4.19919 1.3161,5.02878 0.8808,0.81934 2.7448,1.23415 5.5972,1.23415 h 11.1995 c 2.8472,0 4.7419,-0.41481 5.6739,-1.22903 0.9269,-0.83471 1.3981,-2.49902 1.3981,-5.0339 v -62.27065 l 32.5949,62.43453 c 1.316,2.64241 2.6014,4.31695 3.8713,5.02876 1.2598,0.71694 3.4823,1.07029 6.6624,1.07029 h 10.2111 c 2.8524,0 4.742,-0.41481 5.6792,-1.22903 0.9268,-0.83471 1.398,-2.49902 1.398,-5.0339 V 390.05661 c 0,-2.51951 -0.4712,-4.19918 -1.398,-5.02365 -0.9372,-0.81934 -2.8268,-1.23414 -5.6843,-1.23414 z m 54.6712,-9.91925 28.4213,28.42123 V 545.43113 H 909.5865 V 402.2803 l 28.3905,-28.39562 c 4.1991,-4.19918 4.1991,-11.00492 0,-15.19896 L 909.5814,330.27985 V 187.1239 h 358.3123 v 143.13035 l -28.4212,28.42122 c -4.1992,4.19918 -4.1992,11.00491 0,15.20408 z m 54.0976,-212.43205 H 883.8998 v 181.16868 l 23.6691,23.66901 -23.6691,23.66899 v 181.16871 h 409.6754 V 389.94907 l -23.6689,-23.66899 23.6689,-23.66901 z m -227.5336,315.25545 h -46.2831 l 48.7309,-68.51822 c 0.7681,-1.09587 1.2648,-1.98179 1.485,-2.63728 0.2202,-0.65548 0.3278,-1.42362 0.3278,-2.30442 v -13.18131 c 0,-2.51951 -0.4712,-4.19918 -1.4032,-5.02365 -0.932,-0.81934 -2.837,-1.23414 -5.6996,-1.23414 h -70.3617 c -2.5348,0 -4.1786,0.466 -4.9519,1.3929 -0.7682,0.93713 -1.1574,2.88309 -1.1574,5.85836 v 9.88342 c 0,2.9599 0.384,4.9161 1.1574,5.83787 0.768,0.94225 2.4171,1.40825 4.9519,1.40825 h 43.4358 l -48.0651,68.51822 c -1.2137,1.54141 -1.8231,3.08281 -1.8231,4.60885 v 13.51928 c 0,2.52976 0.4711,4.19406 1.4082,5.02365 0.932,0.81935 2.8371,1.23415 5.6996,1.23415 h 72.5433 c 2.5297,0 4.1838,-0.47113 4.9571,-1.3929 0.7681,-0.93713 1.1573,-2.88309 1.1573,-5.85835 v -9.88342 c 0,-2.95991 -0.3892,-4.90586 -1.1573,-5.83787 -0.7682,-0.94226 -2.4274,-1.41339 -4.9571,-1.41339 z m -21.5439,-174.72656 c 0,4.50642 -0.297,8.27544 -0.9013,11.29167 -0.6042,3.01624 -1.5874,5.46918 -2.9599,7.33319 -1.3724,1.86403 -3.1851,3.175 -5.4333,3.95337 -2.2532,0.76815 -5.0236,1.15221 -8.3112,1.15221 h -13.4989 v -71.17086 h 13.4989 c 6.2526,0 10.7488,1.85378 13.4936,5.5255 2.7397,3.67172 4.1121,9.74516 4.1121,18.20495 z m 23.5461,-47.59917 c -3.8407,-7.80432 -9.0845,-13.5705 -15.7213,-17.29342 -6.6418,-3.73829 -15.0095,-5.60231 -25.1028,-5.60231 h -33.747 c -2.8524,0 -4.7472,0.40968 -5.6842,1.22903 -0.9269,0.8347 -1.3981,2.50926 -1.3981,5.02876 v 104.76425 c 0,2.53486 0.4712,4.19917 1.4031,5.02877 0.932,0.81934 2.8268,1.23413 5.6792,1.23413 h 37.8591 c 17.8875,0 30.1266,-7.6302 36.712,-22.89573 1.5363,-3.51297 2.6066,-7.05153 3.2058,-10.63107 0.6042,-3.56931 0.9063,-8.09621 0.9063,-13.58075 v -22.24026 c 0,-6.2629 -0.3021,-11.20461 -0.9063,-14.82512 a 37.628687,37.628687 0 0 0 -3.2058,-10.21628 z"
     mask="url(#b)"
     id="path9-2-1"
     style="fill:#ffffff;stroke:none;stroke-width:5.12074232;stroke-miterlimit:4;stroke-dasharray:none;paint-order:stroke fill markers"
     inkscape:export-filename="C:\Users\suitedoalex\sites\dazn-logo-4.png"
     inkscape:export-xdpi="93.732742"
     inkscape:export-ydpi="93.732742" />
</svg>
