<?xml version="1.0" encoding="UTF-8" standalone="no"?>
<svg
   xmlns:dc="http://purl.org/dc/elements/1.1/"
   xmlns:cc="http://creativecommons.org/ns#"
   xmlns:rdf="http://www.w3.org/1999/02/22-rdf-syntax-ns#"
   xmlns:svg="http://www.w3.org/2000/svg"
   xmlns="http://www.w3.org/2000/svg"
   xmlns:sodipodi="http://sodipodi.sourceforge.net/DTD/sodipodi-0.dtd"
   xmlns:inkscape="http://www.inkscape.org/namespaces/inkscape"
   version="1.1"
   id="Layer_1"
   x="0px"
   y="0px"
   viewBox="0 0 700 700"
   xml:space="preserve"
   sodipodi:docname="espn-logo.svg"
   width="700"
   height="700"
   inkscape:export-filename="C:\Users\suitedoalex\sites\espn-logo-0.png"
   inkscape:export-xdpi="561.73999"
   inkscape:export-ydpi="561.73999"
   inkscape:version="0.92.4 (5da689c313, 2019-01-14)"><metadata
     id="metadata53"><rdf:RDF><cc:Work
         rdf:about=""><dc:format>image/svg+xml</dc:format><dc:type
           rdf:resource="http://purl.org/dc/dcmitype/StillImage" /><dc:title></dc:title></cc:Work></rdf:RDF></metadata><defs
     id="defs51" /><sodipodi:namedview
     pagecolor="#ffffff"
     bordercolor="#666666"
     borderopacity="1"
     objecttolerance="10"
     gridtolerance="10"
     guidetolerance="10"
     inkscape:pageopacity="0"
     inkscape:pageshadow="2"
     inkscape:window-width="1600"
     inkscape:window-height="837"
     id="namedview49"
     showgrid="false"
     inkscape:zoom="0.46127669"
     inkscape:cx="402.47888"
     inkscape:cy="341.56996"
     inkscape:window-x="-8"
     inkscape:window-y="-8"
     inkscape:window-maximized="1"
     inkscape:current-layer="Layer_1" /><style
     type="text/css"
     id="style2">
	.st0{fill:#1D1D1B;}
	.st1{fill:#F9B300;}
</style><g
     id="g24"
     transform="matrix(10.872843,0,0,10.872843,67.627056,263.01726)"
     style="fill:#dd0000;fill-opacity:1"
     inkscape:export-filename="C:\Users\suitedoalex\sites\espn-logo-4.png"
     inkscape:export-xdpi="72.757835"
     inkscape:export-ydpi="72.757835"><g
       id="g20"
       style="fill:#dd0000;fill-opacity:1"><path
         class="st0"
         d="m 35.2,2 h -8.6 -9.1 c -1.8,0 -3,1 -3.2,2.4 -0.1,0.5 -0.1,1 -0.1,1 h 23.5 c 0,0 0,-0.3 0.1,-0.6 C 38.1,3.3 37.5,2 35.2,2"
         id="path4"
         inkscape:connector-curvature="0"
         style="fill:#dd0000;fill-opacity:1" /><path
         class="st0"
         d="m 37.7,6.7 c 0,0 -0.1,0.5 -0.1,1 -0.1,1 -0.9,1.8 -2.3,1.8 h -5 L 29.6,14 h -4 l 0.9,-7.3 z"
         id="path6"
         inkscape:connector-curvature="0"
         style="fill:#dd0000;fill-opacity:1" /><polygon
         class="st0"
         points="13.5,5.4 2.8,5.4 3.2,2 13.9,2 "
         id="polygon8"
         style="fill:#dd0000;fill-opacity:1" /><polygon
         class="st0"
         points="12.4,14 12.8,10.8 6.1,10.8 6.3,9.4 13,9.4 13.3,6.7 2.6,6.7 1.7,14 "
         id="polygon10"
         style="fill:#dd0000;fill-opacity:1" /><path
         class="st0"
         d="m 39,2 h 8.7 c 1.4,0 2.8,0.6 2.5,2.8 -0.1,0.4 -0.1,0.5 -0.1,0.5 H 38.6 Z"
         id="path12"
         inkscape:connector-curvature="0"
         style="fill:#dd0000;fill-opacity:1" /><polygon
         class="st0"
         points="42.5,6.7 38.5,6.6 37.6,14 41.6,14 "
         id="polygon14"
         style="fill:#dd0000;fill-opacity:1" /><polygon
         class="st0"
         points="50.1,6.7 46.1,6.6 45.1,14 49.1,14 "
         id="polygon16"
         style="fill:#dd0000;fill-opacity:1" /><path
         class="st0"
         d="m 22.9,6.7 c -0.7,0 -7.4,0 -8.8,0 -0.3,1.9 0.7,2.8 2,2.8 0.7,0 5.4,0 5.4,0 l -0.2,1.4 H 13.5 L 13.2,14 c 0,0 8.5,0 8.8,0 0.3,0 2.3,-0.1 2.9,-1.7 0.2,-0.5 0.4,-2.4 0.5,-2.8 0.3,-2.3 -1.3,-2.8 -2.5,-2.8"
         id="path18"
         inkscape:connector-curvature="0"
         style="fill:#dd0000;fill-opacity:1" /></g></g></svg>